<svg viewBox="0 0 400 400" xmlns="http://www.w3.org/2000/svg">
  <!-- Sky gradient -->
  <defs>
    <linearGradient id="skyGradient" x1="0%" y1="0%" x2="0%" y2="100%">
      <stop offset="0%" style="stop-color:#87CEEB;stop-opacity:1" />
      <stop offset="100%" style="stop-color:#E0F6FF;stop-opacity:1" />
    </linearGradient>
    <linearGradient id="waterGradient" x1="0%" y1="0%" x2="0%" y2="100%">
      <stop offset="0%" style="stop-color:#4A90A4;stop-opacity:1" />
      <stop offset="100%" style="stop-color:#2C5F7F;stop-opacity:1" />
    </linearGradient>
  </defs>
  
  <!-- Background -->
  <rect width="400" height="400" fill="url(#skyGradient)"/>
  
  <!-- Water -->
  <ellipse cx="200" cy="350" rx="200" ry="50" fill="url(#waterGradient)"/>
  
  <!-- Lighthouse base -->
  <rect x="180" y="200" width="40" height="150" fill="#F5F5F5" stroke="#E0E0E0" stroke-width="2"/>
  
  <!-- Lighthouse top -->
  <rect x="175" y="180" width="50" height="25" fill="#FF6B6B" stroke="#E53E3E" stroke-width="2"/>
  
  <!-- Light beam -->
  <path d="M 200 180 L 120 120 L 130 110 L 200 170 Z" fill="#FFE066" opacity="0.6"/>
  <path d="M 200 180 L 280 120 L 270 110 L 200 170 Z" fill="#FFE066" opacity="0.6"/>
  
  <!-- Rocks at base -->
  <ellipse cx="190" cy="340" rx="15" ry="8" fill="#8B7D6B"/>
  <ellipse cx="210" cy="345" rx="12" ry="6" fill="#8B7D6B"/>
  <ellipse cx="205" cy="355" rx="10" ry="5" fill="#8B7D6B"/>
  
  <!-- Seagulls -->
  <path d="M 100 80 Q 105 75 110 80 Q 105 85 100 80" fill="#FFFFFF" opacity="0.8"/>
  <path d="M 320 90 Q 325 85 330 90 Q 325 95 320 90" fill="#FFFFFF" opacity="0.8"/>
  
  <!-- Gentle waves -->
  <path d="M 0 320 Q 50 315 100 320 T 200 320 T 300 320 T 400 320" stroke="#5CB3CC" stroke-width="2" fill="none" opacity="0.7"/>
  <path d="M 0 330 Q 50 325 100 330 T 200 330 T 300 330 T 400 330" stroke="#5CB3CC" stroke-width="2" fill="none" opacity="0.5"/>
</svg>